<?xml version="1.0" standalone="no"?>
<!DOCTYPE svg PUBLIC "-//W3C//DTD SVG 20010904//EN"
 "http://www.w3.org/TR/2001/REC-SVG-20010904/DTD/svg10.dtd">
<svg version="1.0" xmlns="http://www.w3.org/2000/svg"
 width="85.000000pt" height="96.000000pt" viewBox="0 0 85.000000 96.000000"
 preserveAspectRatio="xMidYMid meet">

<g transform="translate(0.000000,96.000000) scale(0.100000,-0.100000)"
fill="#1497d4" stroke="none">
<path d="M220 841 c-184 -105 -205 -120 -208 -146 -2 -15 0 -31 5 -34 5 -3 26
-52 46 -107 l37 -102 -37 -83 c-21 -46 -41 -85 -45 -87 -12 -6 -9 -39 5 -49
23 -18 127 -75 127 -69 0 3 -29 21 -65 42 -36 20 -65 39 -63 43 2 4 21 48 43
99 21 50 42 89 45 84 4 -4 49 -65 100 -137 51 -72 115 -159 141 -195 26 -36
46 -66 44 -68 -2 -2 -46 21 -97 51 -109 63 -147 83 -133 69 6 -5 66 -41 134
-80 l124 -71 46 24 c25 14 118 66 206 117 128 74 161 98 163 117 2 13 0 26 -5
30 -5 3 -32 67 -60 141 -28 74 -54 142 -57 151 -5 12 10 31 58 70 35 30 63 58
62 64 -3 11 -366 222 -366 212 0 -2 81 -51 180 -108 l179 -104 -57 -52 c-31
-29 -60 -52 -63 -53 -8 0 -220 266 -241 304 -10 16 -23 33 -30 37 -8 4 -95
-40 -218 -110z m340 -67 c73 -91 130 -167 127 -170 -2 -2 -70 -21 -151 -40
-81 -20 -145 -38 -143 -41 3 -2 71 12 152 31 81 20 148 36 149 36 3 0 -125
-364 -129 -368 -2 -2 -101 47 -220 109 -126 66 -210 116 -203 119 7 4 64 20
127 36 62 15 109 30 103 32 -5 1 -63 -10 -127 -27 -65 -16 -123 -27 -130 -25
-11 4 -100 242 -93 249 12 12 372 215 375 212 2 -3 -32 -60 -76 -128 -139
-216 -203 -320 -199 -324 2 -2 70 102 152 231 81 129 149 234 151 234 2 0 63
-75 135 -166z m211 -364 c30 -80 54 -149 54 -155 0 -5 -55 -17 -122 -26 -68
-8 -123 -14 -123 -12 0 4 104 307 116 336 3 10 10 15 14 10 4 -4 32 -73 61
-153z m-369 -121 c84 -44 155 -83 157 -85 3 -2 -5 -14 -16 -27 -11 -12 -41
-53 -67 -90 -40 -57 -51 -67 -61 -55 -12 13 -263 360 -279 386 -9 15 38 -8
266 -129z m397 -63 c-9 -8 -339 -196 -344 -196 -8 0 95 148 113 163 17 14 246
47 231 33z"/>
<path d="M14 460 c0 -91 2 -128 3 -82 2 45 2 119 0 165 -1 45 -3 8 -3 -83z"/>
</g>
</svg>
